<svg aria-hidden="true" style="position: absolute; width: 0; height: 0; overflow: hidden;" version="1.1"
    xmlns="http://www.w3.org/2000/svg" xmlns:xlink="http://www.w3.org/1999/xlink">
    <defs>
        <symbol id="facebook" viewBox="0 0 32 32">
            <path
                d="M28.25 0h-24.5c-2.068 0-3.75 1.682-3.75 3.75v24.5c0 2.068 1.682 3.75 3.75 3.75h24.5c2.068 0 3.75-1.682 3.75-3.75v-24.5c0-2.068-1.682-3.75-3.75-3.75zM29.5 28.25c0 0.689-0.561 1.25-1.25 1.25h-7.125v-10.188h3.862l0.638-3.875h-4.5v-2.687c0-1.061 0.814-1.875 1.875-1.875h2.563v-3.875h-2.563c-3.183 0-5.749 2.578-5.749 5.761v2.677h-3.751v3.875h3.751v10.188h-13.501c-0.689 0-1.25-0.561-1.25-1.25v-24.5c0-0.689 0.561-1.25 1.25-1.25h24.5c0.689 0 1.25 0.561 1.25 1.25v24.5z">
            </path>
        </symbol>
        <symbol id="instagram" viewBox="0 0 32 32">
            <path
                d="M31.97 22.592c-0.075 1.7-0.35 2.869-0.744 3.882-0.406 1.075-1.031 2.038-1.85 2.838-0.8 0.813-1.769 1.444-2.832 1.844-1.019 0.394-2.181 0.669-3.882 0.744-1.713 0.081-2.257 0.1-6.601 0.1s-4.888-0.019-6.595-0.094c-1.7-0.075-2.869-0.35-3.882-0.744-1.075-0.406-2.038-1.031-2.838-1.85-0.813-0.8-1.444-1.769-1.844-2.832-0.394-1.019-0.669-2.181-0.744-3.882-0.081-1.713-0.1-2.257-0.1-6.601s0.019-4.888 0.094-6.595c0.075-1.7 0.35-2.869 0.744-3.882 0.406-1.075 1.038-2.038 1.85-2.838 0.8-0.813 1.769-1.444 2.832-1.844 1.019-0.394 2.182-0.669 3.882-0.744 1.706-0.075 2.25-0.094 6.595-0.094s4.888 0.019 6.595 0.094c1.7 0.075 2.869 0.35 3.882 0.744 2.15 0.831 3.851 2.532 4.682 4.682 0.394 1.019 0.669 2.182 0.744 3.882 0.075 1.707 0.094 2.25 0.094 6.595s-0.006 4.888-0.081 6.595zM29.088 9.527c-0.069-1.563-0.331-2.407-0.55-2.969-0.538-1.394-1.644-2.501-3.038-3.038-0.562-0.219-1.413-0.481-2.969-0.55-1.688-0.075-2.194-0.094-6.464-0.094s-4.782 0.019-6.464 0.094c-1.563 0.069-2.407 0.331-2.969 0.55-0.694 0.256-1.325 0.663-1.838 1.194-0.531 0.519-0.938 1.144-1.194 1.838-0.219 0.563-0.481 1.413-0.55 2.969-0.075 1.688-0.094 2.194-0.094 6.464s0.019 4.782 0.094 6.464c0.069 1.563 0.331 2.407 0.55 2.969 0.256 0.694 0.663 1.325 1.2 1.838 0.519 0.531 1.144 0.938 1.838 1.194 0.563 0.219 1.413 0.481 2.969 0.55 1.688 0.075 2.194 0.094 6.464 0.094 4.276 0 4.782-0.019 6.464-0.094 1.563-0.069 2.407-0.331 2.969-0.55 0.694-0.256 1.325-0.662 1.838-1.194 0.531-0.519 0.938-1.144 1.194-1.838 0.219-0.562 0.481-1.413 0.55-2.969 0.075-1.688 0.094-2.194 0.094-6.464s-0.019-4.77-0.094-6.458z">
            </path>
            <path
                d="M16.062 24.218c-4.538 0-8.22-3.682-8.22-8.22s3.682-8.22 8.22-8.22c4.538 0 8.22 3.682 8.22 8.22s-3.682 8.22-8.22 8.22zM16.062 10.665c-2.944 0-5.332 2.388-5.332 5.332s2.388 5.332 5.332 5.332c2.944 0 5.332-2.388 5.332-5.332s-2.388-5.332-5.332-5.332z">
            </path>
            <path
                d="M26.526 24.542c0-1.060-0.859-1.919-1.919-1.919s-1.919 0.859-1.919 1.919c0 1.060 0.859 1.919 1.919 1.919s1.919-0.859 1.919-1.919z">
            </path>
        </symbol>
        <symbol id="tick" viewBox="0 0 43 32">
            <path stroke-linejoin="round" stroke-linecap="round" stroke-miterlimit="4" stroke-width="6.4"
                d="M38.4 4.267l-23.467 23.467-10.667-10.667"></path>
        </symbol>
        <symbol id="triangle" viewBox="0 0 27 32">
            <path d="M26.391 16l-26.087 15.061v-30.123l26.087 15.061z"></path>
        </symbol>
        <symbol id="twitter" viewBox="0 0 32 32">
            <path
                d="M23.549 0h-15.098c-4.739 0-8.451 3.712-8.451 8.451v15.098c0 4.739 3.712 8.451 8.451 8.451h15.098c4.739 0 8.451-3.712 8.451-8.451v-15.098c0-4.739-3.713-8.451-8.451-8.451zM29.936 23.549c0 3.582-2.806 6.387-6.387 6.387h-15.098c-3.581 0-6.387-2.806-6.387-6.387v-15.098c0-3.581 2.806-6.387 6.387-6.387h15.098c3.582 0 6.387 2.806 6.387 6.387v15.098z">
            </path>
            <path
                d="M26.068 8.17c-0.331-0.243-0.775-0.263-1.129-0.057s-1.135 0.31-1.763 0.392c-0.13 0.018-0.258 0.034-0.382 0.052-0.878-0.729-2.001-1.138-3.158-1.138-2.606 0-4.745 2.017-4.897 4.554-2.364-0.398-4.529-1.631-6.062-3.483-0.228-0.277-0.582-0.412-0.939-0.365-0.355 0.050-0.659 0.28-0.802 0.608-0.066 0.151-0.642 1.568-0.642 5.074 0 3.036 2.396 5.267 4.039 6.44-1.124 0.511-2.42 0.699-3.65 0.563-0.481-0.052-0.931 0.231-1.090 0.684-0.159 0.454 0.016 0.958 0.423 1.215 1.941 1.224 4.184 1.871 6.488 1.871 7.399 0 11.877-5.813 12.043-11.544 0.213-0.309 0.618-0.909 1.304-1.963 0.274-0.424 0.505-1.339 0.617-1.846 0.090-0.401-0.068-0.817-0.399-1.058zM22.684 12.099c-0.127 0.175-0.196 0.388-0.196 0.605 0 4.074-3.098 9.813-9.984 9.813-0.622 0-1.24-0.057-1.845-0.168 0.807-0.306 1.57-0.732 2.271-1.272 0.281-0.216 0.43-0.563 0.397-0.915s-0.245-0.664-0.562-0.824c-0.044-0.023-4.408-2.317-4.408-5.53 0-1.077 0.058-1.923 0.134-2.567 2.026 1.745 4.605 2.788 7.319 2.922 0.021 0.001 0.042 0.002 0.062 0.001 0.601-0.018 1.043-0.458 1.043-1.032 0-0.142-0.029-0.278-0.082-0.402-0.026-0.155-0.039-0.311-0.039-0.467 0-1.533 1.274-2.78 2.841-2.78 0.787 0 1.543 0.322 2.077 0.883 0.244 0.254 0.6 0.369 0.943 0.301 0.234-0.044 0.505-0.079 0.789-0.117 0.101-0.013 0.203-0.027 0.308-0.041-0.775 1.181-1.055 1.57-1.068 1.589z">
            </path>
        </symbol>
        <symbol id="youtube" viewBox="0 0 30 32">
            <path
                d="M19.938 15.205l-7.059-4.688c-0.272-0.181-0.615-0.19-0.895-0.025s-0.455 0.479-0.455 0.82v9.375c0 0.341 0.174 0.655 0.455 0.82 0.133 0.078 0.281 0.117 0.428 0.117 0.163 0 0.325-0.048 0.468-0.142l7.059-4.688c0.258-0.171 0.415-0.472 0.415-0.795s-0.157-0.624-0.415-0.795zM13.294 18.996v-5.992l4.512 2.996-4.512 2.996z">
            </path>
            <path
                d="M25.706 3.813h-21.294c-2.433 0-4.412 2.103-4.412 4.688v15c0 2.585 1.979 4.687 4.412 4.687h21.294c2.433 0 4.412-2.103 4.412-4.687v-15c0-2.585-1.979-4.688-4.412-4.688zM28.353 23.5c0 1.551-1.187 2.812-2.647 2.812h-21.294c-1.46 0-2.647-1.262-2.647-2.812v-15c0-1.551 1.187-2.813 2.647-2.813h21.294c1.46 0 2.647 1.262 2.647 2.813v15z">
            </path>
        </symbol>
        <symbol id="scroll-to-top" viewBox="0 0 40 32">
            <path stroke-linejoin="miter" stroke-linecap="round" stroke-miterlimit="4" stroke-width="3.5556"
                d="M2.37 29.63l17.778-26.074 17.778 26.074"></path>
        </symbol>
    </defs>
</svg>